<svg xmlns="http://www.w3.org/2000/svg" xmlns:xlink="http://www.w3.org/1999/xlink" width="750" zoomAndPan="magnify" viewBox="0 0 562.5 225" height="300" preserveAspectRatio="xMidYMid meet" version="1.0"><defs><g/><clipPath id="7997282160"><path d="M 221 0.101562 L 231 0.101562 L 231 224.898438 L 221 224.898438 Z M 221 0.101562 " clip-rule="nonzero"/></clipPath><clipPath id="bdf9c84e69"><path d="M 240 96 L 552 96 L 552 224.898438 L 240 224.898438 Z M 240 96 " clip-rule="nonzero"/></clipPath><clipPath id="48249f5835"><rect x="0" width="312" y="0" height="129"/></clipPath><clipPath id="52ed6598fa"><path d="M 240 0.101562 L 492 0.101562 L 492 131 L 240 131 Z M 240 0.101562 " clip-rule="nonzero"/></clipPath><clipPath id="0a3f0c0afb"><rect x="0" width="252" y="0" height="131"/></clipPath><clipPath id="8e0776f9dd"><path d="M 3 18 L 204 18 L 204 224.898438 L 3 224.898438 Z M 3 18 " clip-rule="nonzero"/></clipPath><clipPath id="fd2080c9a8"><rect x="0" width="201" y="0" height="207"/></clipPath></defs><g clip-path="url(#7997282160)"><path stroke-linecap="butt" transform="matrix(0, -0.749334, 0.749334, 0, 221.885274, 224.098683)" fill="none" stroke-linejoin="miter" d="M 0.00137079 6.002049 L 297.442624 6.002049 " stroke="#000000" stroke-width="12" stroke-opacity="1" stroke-miterlimit="4"/></g><g clip-path="url(#bdf9c84e69)"><g transform="matrix(1, 0, 0, 1, 240, 96)"><g clip-path="url(#48249f5835)"><g fill="#000000" fill-opacity="1"><g transform="translate(0.525965, 96.716461)"><g><path d="M 15.578125 -64.65625 L 15.578125 0 L 7.140625 0 L 7.140625 -64.65625 Z M 15.578125 -64.65625 "/></g></g></g><g fill="#000000" fill-opacity="1"><g transform="translate(14.252215, 96.716461)"><g><path d="M 31.90625 -51.765625 C 38.09375 -51.765625 43.101562 -49.890625 46.9375 -46.140625 C 50.769531 -42.398438 52.6875 -37.007812 52.6875 -29.96875 L 52.6875 0 L 44.34375 0 L 44.34375 -28.75 C 44.34375 -33.820312 43.070312 -37.703125 40.53125 -40.390625 C 38 -43.085938 34.539062 -44.4375 30.15625 -44.4375 C 25.695312 -44.4375 22.148438 -43.039062 19.515625 -40.25 C 16.890625 -37.46875 15.578125 -33.421875 15.578125 -28.109375 L 15.578125 0 L 7.140625 0 L 7.140625 -50.828125 L 15.578125 -50.828125 L 15.578125 -43.59375 C 17.253906 -46.195312 19.53125 -48.207031 22.40625 -49.625 C 25.28125 -51.050781 28.445312 -51.765625 31.90625 -51.765625 Z M 31.90625 -51.765625 "/></g></g></g><g fill="#000000" fill-opacity="1"><g transform="translate(64.52318, 96.716461)"><g><path d="M 27.828125 -43.875 L 17.15625 -43.875 L 17.15625 0 L 8.71875 0 L 8.71875 -43.875 L 2.140625 -43.875 L 2.140625 -50.828125 L 8.71875 -50.828125 L 8.71875 -54.453125 C 8.71875 -60.140625 10.1875 -64.296875 13.125 -66.921875 C 16.0625 -69.554688 20.773438 -70.875 27.265625 -70.875 L 27.265625 -63.828125 C 23.554688 -63.828125 20.941406 -63.097656 19.421875 -61.640625 C 17.910156 -60.191406 17.15625 -57.796875 17.15625 -54.453125 L 17.15625 -50.828125 L 27.828125 -50.828125 Z M 27.828125 -43.875 "/></g></g></g><g fill="#000000" fill-opacity="1"><g transform="translate(85.947933, 96.716461)"><g><path d="M 29.3125 0.828125 C 24.550781 0.828125 20.238281 -0.25 16.375 -2.40625 C 12.507812 -4.570312 9.476562 -7.648438 7.28125 -11.640625 C 5.082031 -15.628906 3.984375 -20.253906 3.984375 -25.515625 C 3.984375 -30.703125 5.113281 -35.289062 7.375 -39.28125 C 9.632812 -43.269531 12.710938 -46.332031 16.609375 -48.46875 C 20.503906 -50.601562 24.863281 -51.671875 29.6875 -51.671875 C 34.507812 -51.671875 38.867188 -50.601562 42.765625 -48.46875 C 46.660156 -46.332031 49.734375 -43.285156 51.984375 -39.328125 C 54.242188 -35.367188 55.375 -30.765625 55.375 -25.515625 C 55.375 -20.253906 54.210938 -15.628906 51.890625 -11.640625 C 49.578125 -7.648438 46.441406 -4.570312 42.484375 -2.40625 C 38.523438 -0.25 34.132812 0.828125 29.3125 0.828125 Z M 29.3125 -6.59375 C 32.34375 -6.59375 35.1875 -7.300781 37.84375 -8.71875 C 40.507812 -10.144531 42.660156 -12.28125 44.296875 -15.125 C 45.929688 -17.96875 46.75 -21.429688 46.75 -25.515625 C 46.75 -29.597656 45.945312 -33.0625 44.34375 -35.90625 C 42.738281 -38.75 40.632812 -40.863281 38.03125 -42.25 C 35.4375 -43.644531 32.625 -44.34375 29.59375 -44.34375 C 26.5 -44.34375 23.664062 -43.644531 21.09375 -42.25 C 18.53125 -40.863281 16.472656 -38.75 14.921875 -35.90625 C 13.378906 -33.0625 12.609375 -29.597656 12.609375 -25.515625 C 12.609375 -21.367188 13.363281 -17.875 14.875 -15.03125 C 16.394531 -12.1875 18.421875 -10.066406 20.953125 -8.671875 C 23.492188 -7.285156 26.28125 -6.59375 29.3125 -6.59375 Z M 29.3125 -6.59375 "/></g></g></g><g fill="#000000" fill-opacity="1"><g transform="translate(136.218898, 96.716461)"><g><path d="M 17.4375 -43.875 L 17.4375 -13.921875 C 17.4375 -11.441406 17.960938 -9.691406 19.015625 -8.671875 C 20.066406 -7.648438 21.890625 -7.140625 24.484375 -7.140625 L 30.703125 -7.140625 L 30.703125 0 L 23.09375 0 C 18.394531 0 14.867188 -1.082031 12.515625 -3.25 C 10.171875 -5.414062 9 -8.972656 9 -13.921875 L 9 -43.875 L 2.40625 -43.875 L 2.40625 -50.828125 L 9 -50.828125 L 9 -63.640625 L 17.4375 -63.640625 L 17.4375 -50.828125 L 30.703125 -50.828125 L 30.703125 -43.875 Z M 17.4375 -43.875 "/></g></g></g><g fill="#000000" fill-opacity="1"><g transform="translate(160.890011, 96.716461)"><g><path d="M 53.53125 -27.359375 C 53.53125 -25.753906 53.4375 -24.054688 53.25 -22.265625 L 12.609375 -22.265625 C 12.921875 -17.253906 14.640625 -13.34375 17.765625 -10.53125 C 20.890625 -7.71875 24.675781 -6.3125 29.125 -6.3125 C 32.769531 -6.3125 35.816406 -7.160156 38.265625 -8.859375 C 40.710938 -10.554688 42.429688 -12.828125 43.421875 -15.671875 L 52.5 -15.671875 C 51.144531 -10.785156 48.425781 -6.8125 44.34375 -3.75 C 40.257812 -0.695312 35.1875 0.828125 29.125 0.828125 C 24.300781 0.828125 19.988281 -0.25 16.1875 -2.40625 C 12.382812 -4.570312 9.398438 -7.648438 7.234375 -11.640625 C 5.066406 -15.628906 3.984375 -20.253906 3.984375 -25.515625 C 3.984375 -30.765625 5.035156 -35.367188 7.140625 -39.328125 C 9.242188 -43.285156 12.195312 -46.332031 16 -48.46875 C 19.800781 -50.601562 24.175781 -51.671875 29.125 -51.671875 C 33.945312 -51.671875 38.210938 -50.617188 41.921875 -48.515625 C 45.640625 -46.410156 48.503906 -43.519531 50.515625 -39.84375 C 52.523438 -36.164062 53.53125 -32.003906 53.53125 -27.359375 Z M 44.8125 -29.125 C 44.8125 -32.34375 44.097656 -35.109375 42.671875 -37.421875 C 41.242188 -39.742188 39.304688 -41.507812 36.859375 -42.71875 C 34.421875 -43.925781 31.71875 -44.53125 28.75 -44.53125 C 24.488281 -44.53125 20.859375 -43.164062 17.859375 -40.4375 C 14.859375 -37.71875 13.140625 -33.945312 12.703125 -29.125 Z M 44.8125 -29.125 "/></g></g></g><g fill="#000000" fill-opacity="1"><g transform="translate(209.305914, 96.716461)"><g><path d="M 3.984375 -25.515625 C 3.984375 -30.765625 5.035156 -35.351562 7.140625 -39.28125 C 9.242188 -43.207031 12.164062 -46.253906 15.90625 -48.421875 C 19.644531 -50.585938 23.925781 -51.671875 28.75 -51.671875 C 35 -51.671875 40.148438 -50.15625 44.203125 -47.125 C 48.253906 -44.09375 50.929688 -39.890625 52.234375 -34.515625 L 43.140625 -34.515625 C 42.273438 -37.597656 40.585938 -40.035156 38.078125 -41.828125 C 35.578125 -43.628906 32.46875 -44.53125 28.75 -44.53125 C 23.925781 -44.53125 20.03125 -42.875 17.0625 -39.5625 C 14.09375 -36.25 12.609375 -31.566406 12.609375 -25.515625 C 12.609375 -19.390625 14.09375 -14.65625 17.0625 -11.3125 C 20.03125 -7.976562 23.925781 -6.3125 28.75 -6.3125 C 32.46875 -6.3125 35.5625 -7.175781 38.03125 -8.90625 C 40.507812 -10.632812 42.210938 -13.109375 43.140625 -16.328125 L 52.234375 -16.328125 C 50.867188 -11.128906 48.144531 -6.96875 44.0625 -3.84375 C 39.976562 -0.726562 34.875 0.828125 28.75 0.828125 C 23.925781 0.828125 19.644531 -0.25 15.90625 -2.40625 C 12.164062 -4.570312 9.242188 -7.632812 7.140625 -11.59375 C 5.035156 -15.550781 3.984375 -20.191406 3.984375 -25.515625 Z M 3.984375 -25.515625 "/></g></g></g><g fill="#000000" fill-opacity="1"><g transform="translate(256.516036, 96.716461)"><g><path d="M 32.375 -51.765625 C 36.207031 -51.765625 39.671875 -50.941406 42.765625 -49.296875 C 45.859375 -47.660156 48.285156 -45.203125 50.046875 -41.921875 C 51.804688 -38.648438 52.6875 -34.664062 52.6875 -29.96875 L 52.6875 0 L 44.34375 0 L 44.34375 -28.75 C 44.34375 -33.820312 43.070312 -37.703125 40.53125 -40.390625 C 38 -43.085938 34.539062 -44.4375 30.15625 -44.4375 C 25.695312 -44.4375 22.148438 -43.039062 19.515625 -40.25 C 16.890625 -37.46875 15.578125 -33.421875 15.578125 -28.109375 L 15.578125 0 L 7.140625 0 L 7.140625 -68.640625 L 15.578125 -68.640625 L 15.578125 -43.59375 C 17.253906 -46.195312 19.5625 -48.207031 22.5 -49.625 C 25.4375 -51.050781 28.726562 -51.765625 32.375 -51.765625 Z M 32.375 -51.765625 "/></g></g></g></g></g></g><g clip-path="url(#52ed6598fa)"><g transform="matrix(1, 0, 0, 1, 240, 0.000000000000000777)"><g clip-path="url(#0a3f0c0afb)"><g fill="#c634ef" fill-opacity="1"><g transform="translate(0.525965, 97.487815)"><g><path d="M 79.5 -65.125 L 79.5 0 L 63.640625 0 L 63.640625 -39.046875 L 49.078125 0 L 36.265625 0 L 21.609375 -39.140625 L 21.609375 0 L 5.75 0 L 5.75 -65.125 L 24.484375 -65.125 L 42.765625 -20.03125 L 60.859375 -65.125 Z M 79.5 -65.125 "/></g></g></g><g fill="#c634ef" fill-opacity="1"><g transform="translate(76.582301, 97.487815)"><g><path d="M 13.734375 -57.140625 C 10.953125 -57.140625 8.675781 -57.957031 6.90625 -59.59375 C 5.144531 -61.238281 4.265625 -63.265625 4.265625 -65.671875 C 4.265625 -68.148438 5.144531 -70.207031 6.90625 -71.84375 C 8.675781 -73.488281 10.953125 -74.3125 13.734375 -74.3125 C 16.453125 -74.3125 18.691406 -73.488281 20.453125 -71.84375 C 22.210938 -70.207031 23.09375 -68.148438 23.09375 -65.671875 C 23.09375 -63.265625 22.210938 -61.238281 20.453125 -59.59375 C 18.691406 -57.957031 16.453125 -57.140625 13.734375 -57.140625 Z M 21.609375 -51.765625 L 21.609375 0 L 5.75 0 L 5.75 -51.765625 Z M 21.609375 -51.765625 "/></g></g></g><g fill="#c634ef" fill-opacity="1"><g transform="translate(94.853451, 97.487815)"><g><path d="M 37.296875 -52.3125 C 43.347656 -52.3125 48.179688 -50.347656 51.796875 -46.421875 C 55.421875 -42.492188 57.234375 -37.097656 57.234375 -30.234375 L 57.234375 0 L 41.46875 0 L 41.46875 -28.109375 C 41.46875 -31.566406 40.566406 -34.253906 38.765625 -36.171875 C 36.972656 -38.085938 34.566406 -39.046875 31.546875 -39.046875 C 28.515625 -39.046875 26.097656 -38.085938 24.296875 -36.171875 C 22.503906 -34.253906 21.609375 -31.566406 21.609375 -28.109375 L 21.609375 0 L 5.75 0 L 5.75 -51.765625 L 21.609375 -51.765625 L 21.609375 -44.90625 C 23.222656 -47.1875 25.390625 -48.988281 28.109375 -50.3125 C 30.828125 -51.644531 33.890625 -52.3125 37.296875 -52.3125 Z M 37.296875 -52.3125 "/></g></g></g><g fill="#c634ef" fill-opacity="1"><g transform="translate(148.278019, 97.487815)"><g><path d="M 13.734375 -57.140625 C 10.953125 -57.140625 8.675781 -57.957031 6.90625 -59.59375 C 5.144531 -61.238281 4.265625 -63.265625 4.265625 -65.671875 C 4.265625 -68.148438 5.144531 -70.207031 6.90625 -71.84375 C 8.675781 -73.488281 10.953125 -74.3125 13.734375 -74.3125 C 16.453125 -74.3125 18.691406 -73.488281 20.453125 -71.84375 C 22.210938 -70.207031 23.09375 -68.148438 23.09375 -65.671875 C 23.09375 -63.265625 22.210938 -61.238281 20.453125 -59.59375 C 18.691406 -57.957031 16.453125 -57.140625 13.734375 -57.140625 Z M 21.609375 -51.765625 L 21.609375 0 L 5.75 0 L 5.75 -51.765625 Z M 21.609375 -51.765625 "/></g></g></g><g fill="#c634ef" fill-opacity="1"><g transform="translate(166.549169, 97.487815)"><g><path d="M 31.71875 -38.59375 L 23.1875 -38.59375 L 23.1875 0 L 7.328125 0 L 7.328125 -38.59375 L 1.578125 -38.59375 L 1.578125 -51.765625 L 7.328125 -51.765625 L 7.328125 -53.25 C 7.328125 -59.613281 9.148438 -64.453125 12.796875 -67.765625 C 16.453125 -71.078125 21.800781 -72.734375 28.84375 -72.734375 C 30.019531 -72.734375 30.890625 -72.703125 31.453125 -72.640625 L 31.453125 -59.1875 C 28.421875 -59.375 26.285156 -58.941406 25.046875 -57.890625 C 23.804688 -56.835938 23.1875 -54.953125 23.1875 -52.234375 L 23.1875 -51.765625 L 31.71875 -51.765625 Z M 31.71875 -38.59375 "/></g></g></g><g fill="#c634ef" fill-opacity="1"><g transform="translate(190.849275, 97.487815)"><g><path d="M 58.625 -51.765625 L 26.15625 24.578125 L 9.09375 24.578125 L 20.96875 -1.765625 L -0.09375 -51.765625 L 17.625 -51.765625 L 29.59375 -19.390625 L 41.46875 -51.765625 Z M 58.625 -51.765625 "/></g></g></g></g></g></g><g clip-path="url(#8e0776f9dd)"><g transform="matrix(1, 0, 0, 1, 3, 18)"><g clip-path="url(#fd2080c9a8)"><g fill="#c634ef" fill-opacity="1"><g transform="translate(1.073165, 174.714256)"><g><path d="M 161.515625 -138.609375 C 161.046875 -131.597656 160.890625 -124.664062 161.046875 -117.8125 C 161.203125 -110.957031 161.203125 -104.019531 161.046875 -97 C 160.890625 -88.75 160.582031 -80.492188 160.125 -72.234375 C 160.125 -70.828125 159.890625 -69.460938 159.421875 -68.140625 C 158.953125 -66.816406 158.5625 -65.375 158.25 -63.8125 C 158.875 -61.789062 159.492188 -59.648438 160.109375 -57.390625 C 160.734375 -55.128906 160.503906 -52.828125 159.421875 -50.484375 C 158.171875 -47.835938 157.46875 -45.148438 157.3125 -42.421875 C 157.15625 -39.691406 157 -36.925781 156.84375 -34.125 C 156.6875 -29.914062 156.609375 -25.742188 156.609375 -21.609375 C 156.609375 -17.484375 156.53125 -13.394531 156.375 -9.34375 C 156.375 -8.570312 156.21875 -7.875 155.90625 -7.25 C 155.59375 -6.625 155.359375 -6 155.203125 -5.375 C 154.585938 -5.53125 154.003906 -5.6875 153.453125 -5.84375 C 152.910156 -6 152.328125 -6.15625 151.703125 -6.3125 C 149.679688 -6.9375 148.316406 -7.171875 147.609375 -7.015625 C 146.910156 -6.859375 146.015625 -6 144.921875 -4.4375 C 144.765625 -4.125 144.644531 -3.8125 144.5625 -3.5 C 144.488281 -3.1875 144.375 -2.878906 144.21875 -2.578125 C 142.976562 -0.390625 141.265625 0.390625 139.078125 -0.234375 C 138.453125 -0.234375 137.90625 -0.503906 137.4375 -1.046875 C 136.976562 -1.597656 136.515625 -2.109375 136.046875 -2.578125 C 135.890625 -3.816406 135.8125 -5.140625 135.8125 -6.546875 C 135.8125 -7.953125 136.203125 -9.273438 136.984375 -10.515625 C 138.535156 -12.703125 139.894531 -15.039062 141.0625 -17.53125 C 142.238281 -20.019531 143.054688 -22.59375 143.515625 -25.25 C 143.671875 -25.5625 143.59375 -25.832031 143.28125 -26.0625 C 142.976562 -26.289062 142.75 -26.5625 142.59375 -26.875 C 141.96875 -26.71875 141.300781 -26.5625 140.59375 -26.40625 C 139.894531 -26.257812 139.234375 -26.109375 138.609375 -25.953125 C 138.453125 -26.109375 138.21875 -26.257812 137.90625 -26.40625 C 137.59375 -26.5625 137.363281 -26.71875 137.21875 -26.875 C 136.125 -30.613281 135.691406 -34.238281 135.921875 -37.75 C 136.160156 -41.257812 136.359375 -44.023438 136.515625 -46.046875 C 136.671875 -48.691406 137.410156 -50.5625 138.734375 -51.65625 C 140.054688 -52.75 141.257812 -53.757812 142.34375 -54.6875 C 143.4375 -55.625 143.828125 -57.03125 143.515625 -58.90625 C 142.585938 -59.6875 141.578125 -60.503906 140.484375 -61.359375 C 139.390625 -62.210938 138.222656 -63.109375 136.984375 -64.046875 C 136.515625 -69.035156 136.359375 -74.097656 136.515625 -79.234375 C 136.671875 -84.378906 136.75 -89.523438 136.75 -94.671875 C 136.75 -96.691406 136.707031 -98.753906 136.625 -100.859375 C 136.550781 -102.960938 136.4375 -105.03125 136.28125 -107.0625 C 136.28125 -107.53125 136.003906 -108.035156 135.453125 -108.578125 C 134.910156 -109.117188 134.484375 -109.703125 134.171875 -110.328125 C 133.234375 -109.234375 132.414062 -108.101562 131.71875 -106.9375 C 131.019531 -105.769531 130.203125 -104.640625 129.265625 -103.546875 C 125.367188 -99.648438 122.054688 -95.285156 119.328125 -90.453125 C 116.597656 -85.628906 114.066406 -80.722656 111.734375 -75.734375 C 109.859375 -72.148438 107.984375 -68.488281 106.109375 -64.75 C 104.242188 -61.007812 102.378906 -57.347656 100.515625 -53.765625 C 98.953125 -50.648438 97.546875 -47.492188 96.296875 -44.296875 C 95.054688 -41.097656 94.125 -37.785156 93.5 -34.359375 C 92.25 -33.109375 90.804688 -32.210938 89.171875 -31.671875 C 87.535156 -31.128906 85.863281 -30.625 84.15625 -30.15625 C 80.257812 -28.59375 77.296875 -28.359375 75.265625 -29.453125 C 73.242188 -30.546875 71.84375 -32.570312 71.0625 -35.53125 C 69.5 -40.363281 67.546875 -45.078125 65.203125 -49.671875 C 62.867188 -54.265625 61.472656 -59.289062 61.015625 -64.75 C 60.859375 -66.3125 60.390625 -67.910156 59.609375 -69.546875 C 58.828125 -71.179688 58.046875 -72.695312 57.265625 -74.09375 C 54.617188 -79.394531 52.046875 -84.65625 49.546875 -89.875 C 47.054688 -95.09375 44.878906 -100.429688 43.015625 -105.890625 C 41.296875 -104.640625 40.160156 -103.15625 39.609375 -101.4375 C 39.066406 -99.726562 38.332031 -98.019531 37.40625 -96.3125 C 36.78125 -86.488281 36.582031 -76.585938 36.8125 -66.609375 C 37.050781 -56.640625 37.171875 -46.671875 37.171875 -36.703125 C 37.015625 -31.867188 36.894531 -27.035156 36.8125 -22.203125 C 36.738281 -17.367188 36.703125 -12.539062 36.703125 -7.71875 C 36.546875 -6.78125 36.035156 -6.113281 35.171875 -5.71875 C 34.316406 -5.332031 33.269531 -5.296875 32.03125 -5.609375 C 31.71875 -5.609375 31.40625 -5.6875 31.09375 -5.84375 C 30.78125 -6 30.625 -6.15625 30.625 -6.3125 C 29.0625 -5.84375 27.65625 -5.453125 26.40625 -5.140625 C 25.164062 -4.828125 24.078125 -4.59375 23.140625 -4.4375 C 18.148438 -6.15625 15.578125 -9.429688 15.421875 -14.265625 C 15.265625 -20.179688 15.1875 -26.0625 15.1875 -31.90625 C 15.1875 -37.75 15.109375 -43.632812 14.953125 -49.5625 C 14.953125 -51.894531 14.875 -54.269531 14.71875 -56.6875 C 14.570312 -59.101562 14.03125 -61.476562 13.09375 -63.8125 C 12.78125 -65.0625 12.582031 -66.425781 12.5 -67.90625 C 12.425781 -69.382812 12.546875 -70.671875 12.859375 -71.765625 C 13.953125 -74.410156 14.570312 -77.097656 14.71875 -79.828125 C 14.875 -82.554688 15.03125 -85.320312 15.1875 -88.125 C 15.34375 -98.5625 15.535156 -108.960938 15.765625 -119.328125 C 16.003906 -129.691406 15.96875 -140.015625 15.65625 -150.296875 C 15.5 -151.703125 15.5 -153.066406 15.65625 -154.390625 C 15.8125 -155.710938 15.96875 -156.921875 16.125 -158.015625 C 17.53125 -159.878906 19.085938 -160.847656 20.796875 -160.921875 C 22.515625 -161.003906 24.15625 -161.28125 25.71875 -161.75 C 27.425781 -162.0625 29.054688 -162.410156 30.609375 -162.796875 C 32.171875 -163.191406 33.65625 -163.625 35.0625 -164.09375 C 37.707031 -162.84375 39.691406 -161.203125 41.015625 -159.171875 C 42.347656 -157.148438 43.398438 -154.972656 44.171875 -152.640625 C 44.796875 -151.390625 45.265625 -150.101562 45.578125 -148.78125 C 45.890625 -147.457031 46.4375 -146.25 47.21875 -145.15625 C 50.019531 -141.101562 52.316406 -136.851562 54.109375 -132.40625 C 55.898438 -127.96875 58.203125 -123.726562 61.015625 -119.6875 C 63.191406 -116.5625 64.671875 -113.128906 65.453125 -109.390625 C 66.234375 -105.648438 67.476562 -102.066406 69.1875 -98.640625 C 69.65625 -97.859375 69.96875 -96.921875 70.125 -95.828125 C 70.28125 -94.742188 70.59375 -93.734375 71.0625 -92.796875 C 71.84375 -91.390625 72.738281 -89.984375 73.75 -88.578125 C 74.757812 -87.179688 75.734375 -85.707031 76.671875 -84.15625 C 77.453125 -82.75 77.957031 -81.148438 78.1875 -79.359375 C 78.425781 -77.566406 79.320312 -76.125 80.875 -75.03125 C 83.21875 -74.25 85.007812 -74.796875 86.25 -76.671875 C 87.03125 -77.765625 87.769531 -78.894531 88.46875 -80.0625 C 89.175781 -81.226562 89.765625 -82.4375 90.234375 -83.6875 C 91.316406 -87.425781 92.832031 -90.890625 94.78125 -94.078125 C 96.726562 -97.273438 98.875 -100.429688 101.21875 -103.546875 C 105.582031 -109.316406 109.863281 -115.125 114.0625 -120.96875 C 118.269531 -126.8125 122.554688 -132.613281 126.921875 -138.375 C 128.171875 -142.269531 130.195312 -145.503906 133 -148.078125 C 135.8125 -150.648438 138.460938 -153.335938 140.953125 -156.140625 C 142.660156 -155.515625 144.296875 -154.890625 145.859375 -154.265625 C 147.421875 -153.648438 148.976562 -153.1875 150.53125 -152.875 C 151.78125 -152.5625 153.066406 -152.441406 154.390625 -152.515625 C 155.710938 -152.597656 157 -152.640625 158.25 -152.640625 C 158.71875 -151.859375 159.222656 -151.15625 159.765625 -150.53125 C 160.316406 -149.90625 160.59375 -149.363281 160.59375 -148.90625 C 160.894531 -147.1875 161.125 -145.46875 161.28125 -143.75 C 161.4375 -142.039062 161.515625 -140.328125 161.515625 -138.609375 Z M 150.296875 -58.671875 L 151.234375 -59.84375 L 149.828125 -59.84375 Z M 150.296875 -58.671875 "/></g></g></g><g fill="#000000" fill-opacity="1"><g transform="translate(159.788941, 174.714256)"><g><path d="M 35.296875 -59.609375 C 35.296875 -56.492188 35.296875 -53.179688 35.296875 -49.671875 C 35.296875 -46.160156 35.296875 -42.769531 35.296875 -39.5 C 35.921875 -37.945312 36.503906 -36.425781 37.046875 -34.9375 C 37.597656 -33.457031 38.179688 -31.941406 38.796875 -30.390625 C 38.796875 -26.648438 38.796875 -22.867188 38.796875 -19.046875 C 38.796875 -15.234375 38.796875 -11.613281 38.796875 -8.1875 C 37.398438 -2.726562 34.207031 0 29.21875 0 C 27.039062 0 24.898438 -0.0351562 22.796875 -0.109375 C 20.691406 -0.191406 18.703125 -0.234375 16.828125 -0.234375 C 16.203125 -1.171875 15.617188 -1.945312 15.078125 -2.5625 C 14.535156 -3.1875 14.265625 -3.734375 14.265625 -4.203125 C 13.953125 -8.878906 13.796875 -13.554688 13.796875 -18.234375 C 13.796875 -22.910156 14.726562 -27.507812 16.59375 -32.03125 C 17.0625 -33.269531 17.332031 -34.628906 17.40625 -36.109375 C 17.488281 -37.585938 17.609375 -39.03125 17.765625 -40.4375 C 17.765625 -43.550781 17.765625 -46.785156 17.765625 -50.140625 C 17.765625 -53.492188 17.765625 -56.960938 17.765625 -60.546875 C 16.515625 -63.660156 15.5 -66.148438 14.71875 -68.015625 C 14.570312 -81.265625 14.457031 -94.472656 14.375 -107.640625 C 14.300781 -120.804688 14.1875 -133.78125 14.03125 -146.5625 C 14.957031 -149.050781 15.890625 -151.347656 16.828125 -153.453125 C 17.765625 -155.554688 18.625 -157.546875 19.40625 -159.421875 C 20.332031 -160.203125 21.1875 -160.898438 21.96875 -161.515625 C 22.75 -162.140625 23.53125 -162.6875 24.3125 -163.15625 C 26.644531 -163.46875 28.863281 -163.738281 30.96875 -163.96875 C 33.070312 -164.207031 35.140625 -163.78125 37.171875 -162.6875 C 37.484375 -162.375 37.753906 -162.097656 37.984375 -161.859375 C 38.210938 -161.628906 38.40625 -161.359375 38.5625 -161.046875 C 38.71875 -160.273438 38.875 -159.535156 39.03125 -158.828125 C 39.1875 -158.128906 39.265625 -157.46875 39.265625 -156.84375 C 39.421875 -143.90625 39.5 -130.96875 39.5 -118.03125 C 39.5 -105.101562 39.5 -92.171875 39.5 -79.234375 C 39.5 -77.367188 39.421875 -75.578125 39.265625 -73.859375 C 39.109375 -72.148438 38.953125 -70.4375 38.796875 -68.71875 C 38.179688 -67.164062 37.597656 -65.6875 37.046875 -64.28125 C 36.503906 -62.875 35.921875 -61.316406 35.296875 -59.609375 Z M 35.296875 -59.609375 "/></g></g></g></g></g></g></svg>